<svg xmlns="http://www.w3.org/2000/svg" xmlns:xlink="http://www.w3.org/1999/xlink" width="186.718" height="45.771" viewBox="0 0 186.718 45.771">
  <defs>
    <clipPath id="clip-path">
      <rect id="Rectangle_72" data-name="Rectangle 72" width="186.718" height="45.771" fill="none"/>
    </clipPath>
  </defs>
  <g id="nimbly_logo_white" clip-path="url(#clip-path)">
    <path id="Path_94" data-name="Path 94" d="M346,77.482a10.2,10.2,0,0,0-10.19,10.19v8.839h3.821V87.672a6.369,6.369,0,1,1,12.738,0v8.839h3.821V87.672A10.2,10.2,0,0,0,346,77.482" transform="translate(-277.91 -64.122)" fill="#fff"/>
    <path id="Path_95" data-name="Path 95" d="M786.974,46.127h-5.706V39.594h-3.821v25.79h9.528a9.629,9.629,0,1,0,0-19.257m0,15.437h-5.706V49.948h5.706a5.807,5.807,0,1,1,0,11.614" transform="translate(-643.397 -32.767)" fill="#fff"/>
    <path id="Path_96" data-name="Path 96" d="M561.768,77.478a10.182,10.182,0,0,0-8.28,4.261,10.185,10.185,0,0,0-18.47,5.93v8.839h3.821v-8.84a6.369,6.369,0,0,1,12.738,0v8.839H555.4V87.668a6.369,6.369,0,1,1,12.738,0v8.839h3.821V87.668a10.2,10.2,0,0,0-10.19-10.19" transform="translate(-442.769 -64.118)" fill="#fff"/>
    <rect id="Rectangle_70" data-name="Rectangle 70" width="3.821" height="19.006" transform="translate(83.386 13.382)" fill="#fff"/>
    <rect id="Rectangle_71" data-name="Rectangle 71" width="3.821" height="25.608" transform="translate(157.689 6.781)" fill="#fff"/>
    <path id="Path_97" data-name="Path 97" d="M981.262,80.915v8.839a6.369,6.369,0,1,1-12.738,0V80.915H964.7v8.839a10.206,10.206,0,0,0,8.28,10.008v6.1h3.82v-6.1a10.206,10.206,0,0,0,8.28-10.008V80.915Z" transform="translate(-798.366 -66.963)" fill="#fff"/>
    <path id="Path_98" data-name="Path 98" d="M30.541,15.232a12.947,12.947,0,0,1,11.487,3.53,13.283,13.283,0,0,1-.273,18.757L33.5,45.771l-3.465-3.465,8.253-8.253A8.173,8.173,0,1,0,26.737,22.5l-8.253,8.253-3.465-3.465,8.253-8.253a8.3,8.3,0,0,0,.169-11.723,8.3,8.3,0,0,0-11.722.17L3.465,15.735,0,12.27,8.253,4.017a13.282,13.282,0,0,1,18.756-.274A12.952,12.952,0,0,1,30.54,15.232m-11.564.01L10.723,23.5a8.3,8.3,0,0,0-.17,11.724,8.3,8.3,0,0,0,11.723-.171L30.529,26.8l3.465,3.465-8.253,8.253a13.282,13.282,0,0,1-18.756.274A13.283,13.283,0,0,1,7.259,20.03l8.253-8.253Z" fill="#c099fb"/>
  </g>
</svg>
