<?xml version="1.0" encoding="UTF-8"?><svg id="Lager_1" xmlns="http://www.w3.org/2000/svg" viewBox="0 0 32 32"><path d="M2.62,10.07c-.69,0-1.25,.56-1.25,1.25v9.37c0,.69,.56,1.25,1.25,1.25s1.25-.56,1.25-1.25V11.32c0-.69-.56-1.25-1.25-1.25Z"/><path d="M7.97,4.23c-.69,0-1.25,.56-1.25,1.25V26.52c0,.69,.56,1.25,1.25,1.25s1.25-.56,1.25-1.25V5.48c0-.69-.56-1.25-1.25-1.25Z"/><path d="M13.32,8.03c-.69,0-1.25,.56-1.25,1.25v13.45c0,.69,.56,1.25,1.25,1.25s1.25-.56,1.25-1.25V9.28c0-.69-.56-1.25-1.25-1.25Z"/><path d="M18.68,11.6c-.69,0-1.25,.56-1.25,1.25v6.29c0,.69,.56,1.25,1.25,1.25s1.25-.56,1.25-1.25v-6.29c0-.69-.56-1.25-1.25-1.25Z"/><path d="M29.38,11.6c-.69,0-1.25,.56-1.25,1.25v6.29c0,.69,.56,1.25,1.25,1.25s1.25-.56,1.25-1.25v-6.29c0-.69-.56-1.25-1.25-1.25Z"/><path d="M24.03,7.3c-.69,0-1.25,.56-1.25,1.25v14.9c0,.69,.56,1.25,1.25,1.25s1.25-.56,1.25-1.25V8.55c0-.69-.56-1.25-1.25-1.25Z"/></svg>