<svg viewBox="0 0 32 32" xmlns="http://www.w3.org/2000/svg"><path d="m2.62 10.07c-.69 0-1.25.56-1.25 1.25v9.37c0 .69.56 1.25 1.25 1.25s1.25-.56 1.25-1.25v-9.37c0-.69-.56-1.25-1.25-1.25z"/><path d="m7.97 4.23c-.69 0-1.25.56-1.25 1.25v21.04c0 .69.56 1.25 1.25 1.25s1.25-.56 1.25-1.25v-21.04c0-.69-.56-1.25-1.25-1.25z"/><path d="m13.32 8.03c-.69 0-1.25.56-1.25 1.25v13.45c0 .69.56 1.25 1.25 1.25s1.25-.56 1.25-1.25v-13.45c0-.69-.56-1.25-1.25-1.25z"/><path d="m18.68 11.6c-.69 0-1.25.56-1.25 1.25v6.29c0 .69.56 1.25 1.25 1.25s1.25-.56 1.25-1.25v-6.29c0-.69-.56-1.25-1.25-1.25z"/><path d="m29.38 11.6c-.69 0-1.25.56-1.25 1.25v6.29c0 .69.56 1.25 1.25 1.25s1.25-.56 1.25-1.25v-6.29c0-.69-.56-1.25-1.25-1.25z"/><path d="m24.03 7.3c-.69 0-1.25.56-1.25 1.25v14.9c0 .69.56 1.25 1.25 1.25s1.25-.56 1.25-1.25v-14.9c0-.69-.56-1.25-1.25-1.25z"/></svg>