<?xml version="1.0" encoding="UTF-8"?><svg id="Lager_1" xmlns="http://www.w3.org/2000/svg" width="512" height="512" viewBox="0 0 512 512"><defs><style>.cls-1{stroke-miterlimit:10;}.cls-1,.cls-2,.cls-3,.cls-4{stroke:#000;}.cls-1,.cls-3,.cls-4{fill:none;}.cls-1,.cls-4{stroke-width:12px;}.cls-2{fill:#fff;}.cls-2,.cls-3{stroke-width:5px;}.cls-2,.cls-3,.cls-4{stroke-linecap:round;stroke-linejoin:round;}</style></defs><path class="cls-4" d="M345.28,392.37H72.21c-13.71,0-24.82-11.11-24.82-24.82V117.48c0-13.71,11.11-24.82,24.82-24.82H409.7c13.71,0,24.82,11.11,24.82,24.82v180.09"/><line class="cls-4" x1="51.58" y1="151.62" x2="433.94" y2="151.62"/><line class="cls-3" x1="78.31" y1="123.15" x2="125.03" y2="123.15"/><circle class="cls-3" cx="366.51" cy="123.67" r="11.07"/><circle class="cls-3" cx="401.61" cy="123.67" r="11.07"/><rect class="cls-3" x="81.85" y="199.92" width="84.37" height="76.63" rx="9.15" ry="9.15" transform="translate(-.42 .22) rotate(-.1)"/><rect class="cls-3" x="198.54" y="199.92" width="84.37" height="76.63" rx="9.15" ry="9.15" transform="translate(-.42 .43) rotate(-.1)"/><rect class="cls-3" x="317.04" y="199.92" width="84.37" height="76.63" rx="9.15" ry="9.15" transform="translate(-.42 .64) rotate(-.1)"/><line class="cls-3" x1="82.07" y1="305.85" x2="165.99" y2="305.85"/><line class="cls-3" x1="81.71" y1="332.43" x2="166.36" y2="332.43"/><line class="cls-3" x1="199.07" y1="305.85" x2="282.99" y2="305.85"/><line class="cls-3" x1="198.71" y1="332.43" x2="283.36" y2="332.43"/><line class="cls-3" x1="317.25" y1="305.85" x2="368.18" y2="305.85"/><line class="cls-3" x1="316.88" y1="332.43" x2="346.05" y2="332.43"/><circle class="cls-1" cx="402.66" cy="357.39" r="61.95"/><polyline class="cls-2" points="401.64 321.06 401.64 363.3 424.69 386.35"/></svg>
