<?xml version="1.0" encoding="UTF-8"?><svg id="Lager_1" xmlns="http://www.w3.org/2000/svg" viewBox="0 0 32 32"><path d="M17.42,12.27c0-.41-.34-.75-.75-.75H6.37c-.41,0-.75,.34-.75,.75s.34,.75,.75,.75h10.3c.41,0,.75-.34,.75-.75Z"/><path d="M16.67,7.8H6.37c-.41,0-.75,.34-.75,.75s.34,.75,.75,.75h10.3c.41,0,.75-.34,.75-.75s-.34-.75-.75-.75Z"/><path d="M6.37,15.25c-.41,0-.75,.34-.75,.75s.34,.75,.75,.75h4.18c.41,0,.75-.34,.75-.75s-.34-.75-.75-.75H6.37Z"/><path d="M10.4,20.62l-2.41,3.39c-.71-1.73-1.38-3.43-1.39-3.45-.19-.48-.65-.79-1.16-.79H2.65c-.11,0-.21-.11-.21-.24V5c0-.13,.09-.24,.21-.24H21.04c.11,0,.21,.11,.21,.24v5.47c0,.69,.56,1.25,1.25,1.25s1.25-.56,1.25-1.25V5c0-1.51-1.21-2.74-2.71-2.74H2.65C1.15,2.26-.06,3.49-.06,5v14.52c0,1.51,1.21,2.74,2.71,2.74h1.94c.46,1.15,1.32,3.29,1.97,4.8,.18,.41,.57,.7,1.02,.75,.04,0,.09,0,.13,0,.4,0,.78-.19,1.02-.53l3.71-5.23c.4-.56,.27-1.34-.29-1.74-.56-.4-1.34-.27-1.74,.29Z"/><path d="M23.04,13.91c-4.76,0-8.63,3.87-8.63,8.63s3.87,8.63,8.63,8.63,8.63-3.87,8.63-8.63-3.87-8.63-8.63-8.63Zm0,14.76c-3.38,0-6.13-2.75-6.13-6.13s2.75-6.13,6.13-6.13,6.13,2.75,6.13,6.13-2.75,6.13-6.13,6.13Z"/><path d="M26.17,23.94l-2.45-1.48v-3.68c0-.41-.34-.75-.75-.75s-.75,.34-.75,.75v4.11c0,.26,.14,.51,.36,.64l2.81,1.7c.12,.07,.26,.11,.39,.11,.25,0,.5-.13,.64-.36,.21-.35,.1-.82-.25-1.03Z"/></svg>