<?xml version="1.0" encoding="UTF-8"?><svg id="Lager_1" xmlns="http://www.w3.org/2000/svg" viewBox="0 0 32 32"><path d="M24.12,10.01c-.4-.38-1.03-.36-1.41,.04-.38,.4-.36,1.04,.04,1.41l2.01,1.89-2.01,1.89c-.4,.38-.42,1.01-.04,1.41,.2,.21,.46,.32,.73,.32,.25,0,.49-.09,.68-.27l2.79-2.62c.2-.19,.32-.45,.32-.73s-.11-.54-.32-.73l-2.79-2.62Z"/><path d="M9.29,10.05c-.38-.4-1.01-.42-1.41-.04l-2.79,2.62c-.2,.19-.32,.45-.32,.73s.11,.54,.32,.73l2.79,2.62c.19,.18,.44,.27,.68,.27,.27,0,.53-.11,.73-.32,.38-.4,.36-1.04-.04-1.41l-2.01-1.89,2.01-1.89c.4-.38,.42-1.01,.04-1.41Z"/><circle cx="12.57" cy="15.98" r=".61"/><circle cx="16.03" cy="15.98" r=".61"/><circle cx="19.48" cy="15.98" r=".61"/><path d="M31.55,9.09V4.48c0-1.69-1.44-3.06-3.21-3.06H3.61C1.84,1.42,.4,2.8,.4,4.48V22.04c0,1.73,1.5,3.25,3.21,3.25h2.95c.59,1.27,1.82,3.94,2.73,5.81,.19,.39,.57,.66,1,.7,.04,0,.09,0,.13,0,.39,0,.75-.18,.99-.49l4.62-6.03h12.02c.37,.03,1.59,.05,2.54-.79,.47-.41,1.02-1.18,1.02-2.51,0-2.3-.04-12.73-.05-12.91Zm-2.63,13.55c-.17,.16-.55,.18-.68,.17-.05,0-.1,0-.15,0H15.41c-.39,0-.76,.18-.99,.49l-3.75,4.89c-1.06-2.24-2.15-4.62-2.17-4.66-.2-.44-.65-.73-1.14-.73H3.61c-.36,0-.71-.42-.71-.75V4.48c0-.3,.32-.56,.71-.56H28.34c.38,0,.71,.25,.71,.56v4.61h0s.05,10.58,.05,12.9c0,.22-.03,.51-.18,.64Z"/></svg>