<svg viewBox="0 0 32 32" xmlns="http://www.w3.org/2000/svg"><path d="m16.65 12.89c0-.41-.34-.75-.75-.75h-7.53c-.41 0-.75.34-.75.75s.34.75.75.75h7.53c.41 0 .75-.34.75-.75z"/><path d="m19.42 9.17c0-.41-.34-.75-.75-.75h-10.3c-.41 0-.75.34-.75.75s.34.75.75.75h10.3c.41 0 .75-.34.75-.75z"/><path d="m8.37 15.87c-.41 0-.75.34-.75.75s.34.75.75.75h5.15c.41 0 .75-.34.75-.75s-.34-.75-.75-.75z"/><path d="m12.4 21.24-2.41 3.39c-.71-1.72-1.38-3.43-1.39-3.45-.19-.48-.65-.79-1.16-.79h-2.79c-.11 0-.21-.11-.21-.24v-14.53c0-.13.09-.24.21-.24h18.39c.11 0 .21.11.21.24v5.46c0 .69.56 1.25 1.25 1.25s1.25-.56 1.25-1.25v-5.46c0-1.51-1.21-2.74-2.71-2.74h-18.39c-1.49 0-2.71 1.23-2.71 2.74v14.52c0 1.51 1.21 2.74 2.71 2.74h1.94c.46 1.15 1.32 3.29 1.97 4.8.18.41.57.7 1.02.75h.13c.4 0 .78-.19 1.02-.53l3.71-5.23c.4-.56.27-1.34-.29-1.74s-1.34-.27-1.74.29z"/><path d="m28.94 24.55c-.37-.37-.83-.61-1.31-.73v-1.82c0-.41-.34-.75-.75-.75h-3.74v-1.95c1.2-.33 2.08-1.42 2.08-2.72 0-1.56-1.27-2.83-2.83-2.83s-2.83 1.27-2.83 2.83c0 1.3.89 2.39 2.08 2.72v1.95h-3.74c-.41 0-.75.34-.75.75v1.83c-1.2.33-2.08 1.42-2.08 2.72 0 1.56 1.27 2.83 2.83 2.83s2.83-1.27 2.83-2.83c0-1.3-.89-2.39-2.08-2.72v-1.08h7.49v1.1c-.44.13-.86.35-1.2.7-.54.54-.83 1.25-.83 2s.29 1.47.83 2c.55.55 1.28.83 2 .83s1.45-.28 2-.83.83-1.25.83-2-.29-1.47-.83-2zm-7.88-7.97c0-.74.6-1.33 1.33-1.33s1.33.6 1.33 1.33-.6 1.33-1.33 1.33-1.33-.6-1.33-1.33zm-1.83 9.97c0 .74-.6 1.33-1.33 1.33s-1.33-.6-1.33-1.33.6-1.33 1.33-1.33 1.33.6 1.33 1.33zm8.65.94c-.52.52-1.37.52-1.89 0-.25-.25-.39-.59-.39-.94s.14-.69.39-.94.6-.39.94-.39.68.13.94.39c.25.25.39.59.39.94s-.14.69-.39.94z"/></svg>