<svg viewBox="0 0 32 32" xmlns="http://www.w3.org/2000/svg"><path d="m17.42 12.27c0-.41-.34-.75-.75-.75h-10.3c-.41 0-.75.34-.75.75s.34.75.75.75h10.3c.41 0 .75-.34.75-.75z"/><path d="m16.67 7.8h-10.3c-.41 0-.75.34-.75.75s.34.75.75.75h10.3c.41 0 .75-.34.75-.75s-.34-.75-.75-.75z"/><path d="m6.37 15.25c-.41 0-.75.34-.75.75s.34.75.75.75h4.18c.41 0 .75-.34.75-.75s-.34-.75-.75-.75z"/><path d="m10.4 20.62-2.41 3.39c-.71-1.73-1.38-3.43-1.39-3.45-.19-.48-.65-.79-1.16-.79h-2.79c-.11 0-.21-.11-.21-.24v-14.53c0-.13.09-.24.21-.24h18.39c.11 0 .21.11.21.24v5.47c0 .69.56 1.25 1.25 1.25s1.25-.56 1.25-1.25v-5.47c0-1.51-1.21-2.74-2.71-2.74h-18.39c-1.5 0-2.71 1.23-2.71 2.74v14.52c0 1.51 1.21 2.74 2.71 2.74h1.94c.46 1.15 1.32 3.29 1.97 4.8.18.41.57.7 1.02.75h.13c.4 0 .78-.19 1.02-.53l3.71-5.23c.4-.56.27-1.34-.29-1.74s-1.34-.27-1.74.29z"/><path d="m23.04 13.91c-4.76 0-8.63 3.87-8.63 8.63s3.87 8.63 8.63 8.63 8.63-3.87 8.63-8.63-3.87-8.63-8.63-8.63zm0 14.76c-3.38 0-6.13-2.75-6.13-6.13s2.75-6.13 6.13-6.13 6.13 2.75 6.13 6.13-2.75 6.13-6.13 6.13z"/><path d="m26.17 23.94-2.45-1.48v-3.68c0-.41-.34-.75-.75-.75s-.75.34-.75.75v4.11c0 .26.14.51.36.64l2.81 1.7c.12.07.26.11.39.11.25 0 .5-.13.64-.36.21-.35.1-.82-.25-1.03z"/></svg>