<svg viewBox="0 0 32 32" xmlns="http://www.w3.org/2000/svg"><path d="m24.43 12h-11.95c-.41 0-.75.34-.75.75s.34.75.75.75h11.95c.41 0 .75-.34.75-.75s-.34-.75-.75-.75z"/><path d="m24.43 16.7h-11.95c-.41 0-.75.34-.75.75s.34.75.75.75h11.95c.41 0 .75-.34.75-.75s-.34-.75-.75-.75z"/><path d="m24.43 7.16h-11.95c-.41 0-.75.34-.75.75s.34.75.75.75h11.95c.41 0 .75-.34.75-.75s-.34-.75-.75-.75z"/><path d="m7.96 6.84c-.65 0-1.18.48-1.18 1.07s.53 1.07 1.18 1.07 1.18-.48 1.18-1.07-.53-1.07-1.18-1.07z"/><path d="m7.96 11.68c-.65 0-1.18.48-1.18 1.07s.53 1.07 1.18 1.07 1.18-.48 1.18-1.07-.53-1.07-1.18-1.07z"/><path d="m7.96 16.38c-.65 0-1.18.48-1.18 1.07s.53 1.07 1.18 1.07 1.18-.48 1.18-1.07-.53-1.07-1.18-1.07z"/><path d="m31.55 8.45v-4.61c0-1.69-1.44-3.06-3.21-3.06h-24.73c-1.77 0-3.21 1.38-3.21 3.06v17.56c0 1.73 1.5 3.25 3.21 3.25h2.95c.59 1.27 1.82 3.94 2.73 5.81.19.39.57.66 1 .7h.13c.39 0 .75-.18.99-.49l4.62-6.03h12.02c.36.03 1.59.04 2.54-.79.46-.41 1.02-1.18 1.02-2.51 0-2.3-.05-12.73-.05-12.9zm-2.63 13.54c-.17.16-.56.18-.68.17-.05 0-.1 0-.15 0h-12.68c-.39 0-.76.18-.99.49l-3.75 4.89c-1.06-2.24-2.15-4.63-2.17-4.66-.2-.44-.65-.73-1.14-.73h-3.75c-.37 0-.71-.42-.71-.75v-17.56c0-.3.32-.56.71-.56h24.73c.38 0 .71.25.71.56v4.61s.05 10.58.05 12.9c0 .22-.03.51-.18.64z"/></svg>