<?xml version="1.0" encoding="UTF-8"?><svg id="Lager_1" xmlns="http://www.w3.org/2000/svg" viewBox="0 0 32 32"><path d="M28.07,5.87H3.93c-1.91,0-3.46,1.67-3.46,3.72v7.02c0,2.05,1.55,3.72,3.46,3.72h7.42c.69,0,1.25-.56,1.25-1.25s-.56-1.25-1.25-1.25H3.93c-.52,0-.96-.56-.96-1.22v-7.02c0-.66,.44-1.22,.96-1.22H28.07c.52,0,.96,.56,.96,1.22v7.02c0,.66-.44,1.22-.96,1.22-.69,0-1.25,.56-1.25,1.25s.56,1.25,1.25,1.25c1.91,0,3.46-1.67,3.46-3.72v-7.02c0-2.05-1.55-3.72-3.46-3.72Z"/><polygon points="14.4 12.21 15.89 27.07 19.26 25.31 22.09 30.1 25.95 28.08 23.12 23.28 26.49 21.52 14.4 12.21"/></svg>