<svg viewBox="0 0 32 32" xmlns="http://www.w3.org/2000/svg"><path d="m28.07 5.87h-24.14c-1.91 0-3.46 1.67-3.46 3.72v7.02c0 2.05 1.55 3.72 3.46 3.72h7.42c.69 0 1.25-.56 1.25-1.25s-.56-1.25-1.25-1.25h-7.42c-.52 0-.96-.56-.96-1.22v-7.02c0-.66.44-1.22.96-1.22h24.14c.52 0 .96.56.96 1.22v7.02c0 .66-.44 1.22-.96 1.22-.69 0-1.25.56-1.25 1.25s.56 1.25 1.25 1.25c1.91 0 3.46-1.67 3.46-3.72v-7.02c0-2.05-1.55-3.72-3.46-3.72z"/><path d="m14.4 12.21 1.49 14.86 3.37-1.76 2.83 4.79 3.86-2.02-2.83-4.8 3.37-1.76z"/></svg>