<svg width="32" height="32" viewBox="0 0 32 32" fill="none" xmlns="http://www.w3.org/2000/svg">
<path d="M23.1656 4.20563H8.80623C8.1069 4.20563 7.53998 4.77255 7.53998 5.47188V26.5281C7.53998 27.2275 8.1069 27.7944 8.80623 27.7944H23.1656C23.8649 27.7944 24.4319 27.2275 24.4319 26.5281V5.47188C24.4319 4.77255 23.8649 4.20563 23.1656 4.20563Z" stroke="#C71414" stroke-width="2" stroke-linecap="round" stroke-linejoin="round"/>
<path d="M10.3475 19.5625H20.8593" stroke="#C71414" stroke-linecap="round" stroke-linejoin="round"/>
<path d="M10.3475 21.115H17.1068" stroke="#C71414" stroke-linecap="round" stroke-linejoin="round"/>
<path d="M10.3475 18.0481H13.8981" stroke="#C71414" stroke-linecap="round" stroke-linejoin="round"/>
<path d="M10.0044 15.3725L14.4775 9.88L16.8669 12.7919L19.7163 11.8456L21.8306 12.7919" stroke="#C71414" stroke-linecap="round" stroke-linejoin="round"/>
<path d="M18.0338 10.5106C18.5968 10.5106 19.0532 10.0584 19.0532 9.50063C19.0532 8.94282 18.5968 8.49063 18.0338 8.49063C17.4708 8.49063 17.0144 8.94282 17.0144 9.50063C17.0144 10.0584 17.4708 10.5106 18.0338 10.5106Z" stroke="#C71414" stroke-linecap="round" stroke-linejoin="round"/>
<path d="M14.6519 22.8581H10.8306C10.4571 22.8581 10.1544 23.1609 10.1544 23.5344V23.66C10.1544 24.0335 10.4571 24.3362 10.8306 24.3362H14.6519C15.0253 24.3362 15.3281 24.0335 15.3281 23.66V23.5344C15.3281 23.1609 15.0253 22.8581 14.6519 22.8581Z" stroke="#C71414" stroke-linecap="round" stroke-linejoin="round"/>
<path d="M21.5988 7.07375H10.4825C10.2185 7.07375 10.0044 7.28781 10.0044 7.55187V15.6144C10.0044 15.8784 10.2185 16.0925 10.4825 16.0925H21.5988C21.8628 16.0925 22.0769 15.8784 22.0769 15.6144V7.55187C22.0769 7.28781 21.8628 7.07375 21.5988 7.07375Z" stroke="#C71414" stroke-linecap="round" stroke-linejoin="round"/>
</svg>
