<svg viewBox="0 0 32 32" xmlns="http://www.w3.org/2000/svg"><path d="m25.61.82h-19.22c-1.04 0-1.89.85-1.89 1.89v26.59c0 1.04.85 1.89 1.89 1.89h19.22c1.04 0 1.89-.85 1.89-1.89v-26.6c0-1.04-.85-1.89-1.89-1.89zm-.61 27.86h-17.99v-25.36h17.98v25.36z"/><path d="m21.99 20.06h-12.03c-.41 0-.75.34-.75.75s.34.75.75.75h12.03c.41 0 .75-.34.75-.75s-.34-.75-.75-.75z"/><path d="m9.83 25.49h6.62c.41 0 .75-.34.75-.75s-.34-.75-.75-.75h-6.62c-.41 0-.75.34-.75.75s.34.75.75.75z"/><path d="m9.83 17.11h12.16c.41 0 .75-.34.75-.75v-10.21c0-.41-.34-.75-.75-.75h-12.16c-.41 0-.75.34-.75.75v10.21c0 .41.34.75.75.75zm.75-10.21h10.66v8.71h-10.66z"/></svg>