<?xml version="1.0" encoding="UTF-8"?><svg id="Lager_1" xmlns="http://www.w3.org/2000/svg" viewBox="0 0 32 32"><path d="M4.16,16c0,.55,.45,1,1,1H26.82c.55,0,1-.45,1-1s-.45-1-1-1H5.16c-.55,0-1,.45-1,1Z"/><path d="M4.78,10.44H13.61c.41,0,.75-.34,.75-.75s-.34-.75-.75-.75H4.78c-.41,0-.75,.34-.75,.75s.34,.75,.75,.75Z"/><path d="M4.78,6.82H13.61c.41,0,.75-.34,.75-.75s-.34-.75-.75-.75H4.78c-.41,0-.75,.34-.75,.75s.34,.75,.75,.75Z"/><path d="M27.22,8.94h-8.83c-.41,0-.75,.34-.75,.75s.34,.75,.75,.75h8.83c.41,0,.75-.34,.75-.75s-.34-.75-.75-.75Z"/><path d="M18.39,6.82h8.83c.41,0,.75-.34,.75-.75s-.34-.75-.75-.75h-8.83c-.41,0-.75,.34-.75,.75s.34,.75,.75,.75Z"/><path d="M13.61,25.18H4.78c-.41,0-.75,.34-.75,.75s.34,.75,.75,.75H13.61c.41,0,.75-.34,.75-.75s-.34-.75-.75-.75Z"/><path d="M13.61,21.56H4.78c-.41,0-.75,.34-.75,.75s.34,.75,.75,.75H13.61c.41,0,.75-.34,.75-.75s-.34-.75-.75-.75Z"/><path d="M27.22,25.18h-8.83c-.41,0-.75,.34-.75,.75s.34,.75,.75,.75h8.83c.41,0,.75-.34,.75-.75s-.34-.75-.75-.75Z"/><path d="M27.22,21.56h-8.83c-.41,0-.75,.34-.75,.75s.34,.75,.75,.75h8.83c.41,0,.75-.34,.75-.75s-.34-.75-.75-.75Z"/></svg>