<svg viewBox="0 0 32 32" xmlns="http://www.w3.org/2000/svg"><path d="m4.16 16c0 .55.45 1 1 1h21.66c.55 0 1-.45 1-1s-.45-1-1-1h-21.66c-.55 0-1 .45-1 1z"/><path d="m4.78 10.44h8.83c.41 0 .75-.34.75-.75s-.34-.75-.75-.75h-8.83c-.41 0-.75.34-.75.75s.34.75.75.75z"/><path d="m4.78 6.82h8.83c.41 0 .75-.34.75-.75s-.34-.75-.75-.75h-8.83c-.41 0-.75.34-.75.75s.34.75.75.75z"/><path d="m27.22 8.94h-8.83c-.41 0-.75.34-.75.75s.34.75.75.75h8.83c.41 0 .75-.34.75-.75s-.34-.75-.75-.75z"/><path d="m18.39 6.82h8.83c.41 0 .75-.34.75-.75s-.34-.75-.75-.75h-8.83c-.41 0-.75.34-.75.75s.34.75.75.75z"/><path d="m13.61 25.18h-8.83c-.41 0-.75.34-.75.75s.34.75.75.75h8.83c.41 0 .75-.34.75-.75s-.34-.75-.75-.75z"/><path d="m13.61 21.56h-8.83c-.41 0-.75.34-.75.75s.34.75.75.75h8.83c.41 0 .75-.34.75-.75s-.34-.75-.75-.75z"/><path d="m27.22 25.18h-8.83c-.41 0-.75.34-.75.75s.34.75.75.75h8.83c.41 0 .75-.34.75-.75s-.34-.75-.75-.75z"/><path d="m27.22 21.56h-8.83c-.41 0-.75.34-.75.75s.34.75.75.75h8.83c.41 0 .75-.34.75-.75s-.34-.75-.75-.75z"/></svg>