<?xml version="1.0" encoding="UTF-8"?><svg id="Lager_1" xmlns="http://www.w3.org/2000/svg" viewBox="0 0 32 32"><path d="M15,22.55H6.93c-.41,0-.75,.34-.75,.75s.34,.75,.75,.75H15c.41,0,.75-.34,.75-.75s-.34-.75-.75-.75Z"/><path d="M15,27.72H6.93c-.41,0-.75,.34-.75,.75s.34,.75,.75,.75H15c.41,0,.75-.34,.75-.75s-.34-.75-.75-.75Z"/><path d="M15,17.22H6.93c-.41,0-.75,.34-.75,.75s.34,.75,.75,.75H15c.41,0,.75-.34,.75-.75s-.34-.75-.75-.75Z"/><path d="M2.41,16.79c-.65,0-1.18,.53-1.18,1.18s.53,1.18,1.18,1.18,1.18-.53,1.18-1.18-.53-1.18-1.18-1.18Z"/><path d="M2.41,22.12c-.65,0-1.18,.53-1.18,1.18s.53,1.18,1.18,1.18,1.18-.53,1.18-1.18-.53-1.18-1.18-1.18Z"/><path d="M2.41,27.3c-.65,0-1.18,.53-1.18,1.18s.53,1.18,1.18,1.18,1.18-.53,1.18-1.18-.53-1.18-1.18-1.18Z"/><path d="M22.91,.57c-2.64,0-4.72,.75-6.19,2.24-2.06,2.08-2.05,4.83-2.05,4.95,0,.83,.68,1.49,1.52,1.48,.83,0,1.49-.69,1.48-1.52,0-.02,.01-1.62,1.18-2.8,.88-.89,2.25-1.35,4.05-1.35,4.21,0,4.84,3.09,4.84,4.94,0,1.63-.5,3.63-4.22,6.18-3.19,2.19-2.93,6.65-2.91,6.84,.05,.79,.71,1.4,1.5,1.4,.03,0,.06,0,.1,0,.82-.05,1.45-.76,1.4-1.59,0-.03-.15-2.96,1.62-4.17,3.82-2.62,5.52-5.29,5.52-8.66,0-3.66-2.05-7.94-7.84-7.94Z"/><path d="M23.37,26.25c-1.13-.65-2.58-.27-3.23,.87-.65,1.13-.27,2.58,.87,3.23,1.13,.65,2.58,.27,3.23-.87,.65-1.13,.27-2.58-.87-3.23Z"/></svg>