<?xml version="1.0" encoding="UTF-8"?><svg id="Lager_1" xmlns="http://www.w3.org/2000/svg" width="512" height="512" viewBox="0 0 512 512"><defs><style>.cls-1{stroke-width:5px;}.cls-1,.cls-2{fill:none;stroke:#000;stroke-linecap:round;stroke-linejoin:round;}.cls-2{stroke-width:12px;}</style></defs><rect class="cls-2" x="48.11" y="73.82" width="415.78" height="364.37" rx="20.26" ry="20.26"/><line class="cls-1" x1="165.91" y1="136.78" x2="348.55" y2="136.78"/><line class="cls-1" x1="165.91" y1="163.75" x2="283.35" y2="163.75"/><path d="M105.16,168.53l-.2-2.61c-.6-5.43,1.21-11.36,6.23-17.39,4.52-5.33,7.04-9.25,7.04-13.77,0-5.13-3.22-8.55-9.55-8.65-3.62,0-7.64,1.21-10.16,3.12l-2.41-6.33c3.32-2.41,9.05-4.02,14.38-4.02,11.56,0,16.79,7.14,16.79,14.78,0,6.84-3.82,11.76-8.65,17.49-4.42,5.23-6.03,9.65-5.73,14.78l.1,2.61h-7.84Zm-2.21,14.08c0-3.72,2.51-6.33,6.03-6.33s5.93,2.61,5.93,6.33c0,3.52-2.31,6.23-6.03,6.23-3.52,0-5.93-2.71-5.93-6.23Z"/><line class="cls-1" x1="165.91" y1="244.59" x2="348.55" y2="244.59"/><line class="cls-1" x1="165.91" y1="271.57" x2="283.35" y2="271.57"/><path d="M105.16,273.97l-.2-2.61c-.6-5.43,1.21-11.36,6.23-17.39,4.52-5.33,7.04-9.25,7.04-13.77,0-5.13-3.22-8.55-9.55-8.65-3.62,0-7.64,1.21-10.16,3.12l-2.41-6.33c3.32-2.41,9.05-4.02,14.38-4.02,11.56,0,16.79,7.14,16.79,14.78,0,6.84-3.82,11.76-8.65,17.49-4.42,5.23-6.03,9.65-5.73,14.78l.1,2.61h-7.84Zm-2.21,14.08c0-3.72,2.51-6.33,6.03-6.33s5.93,2.61,5.93,6.33c0,3.52-2.31,6.23-6.03,6.23-3.52,0-5.93-2.71-5.93-6.23Z"/><line class="cls-1" x1="165.91" y1="352.63" x2="348.55" y2="352.63"/><line class="cls-1" x1="165.91" y1="379.61" x2="283.35" y2="379.61"/><path d="M105.16,380.82l-.2-2.61c-.6-5.43,1.21-11.36,6.23-17.39,4.52-5.33,7.04-9.25,7.04-13.77,0-5.13-3.22-8.55-9.55-8.65-3.62,0-7.64,1.21-10.16,3.12l-2.41-6.33c3.32-2.41,9.05-4.02,14.38-4.02,11.56,0,16.79,7.14,16.79,14.78,0,6.84-3.82,11.76-8.65,17.49-4.42,5.23-6.03,9.65-5.73,14.78l.1,2.61h-7.84Zm-2.21,14.08c0-3.72,2.51-6.33,6.03-6.33s5.93,2.61,5.93,6.33c0,3.52-2.31,6.23-6.03,6.23-3.52,0-5.93-2.71-5.93-6.23Z"/><polygon points="409.11 147.39 428.3 128.61 389.92 128.61 409.11 147.39"/><polygon points="409.11 254.2 428.3 235.42 389.92 235.42 409.11 254.2"/><polygon points="409.11 364.53 428.3 345.75 389.92 345.75 409.11 364.53"/></svg>