<?xml version="1.0" encoding="UTF-8"?><svg id="Lager_1" xmlns="http://www.w3.org/2000/svg" viewBox="0 0 32 32"><path d="M28.05,9.43L18.99,.69c-.35-.34-.82-.53-1.31-.53H5.25c-1.04,0-1.88,.84-1.88,1.86V30.05c0,1.03,.84,1.86,1.88,1.86H26.75c1.04,0,1.88-.84,1.88-1.86V10.77c0-.5-.21-.99-.57-1.34Zm-9.03-5.24l5.91,5.69h-5.91V4.19ZM5.88,29.41V2.66h11.55l.09,.09v7.89c0,.41,.34,.75,.75,.75h7.85V29.41H5.88Z"/><path d="M20.74,19.78h-7.07c-.41,0-.75,.34-.75,.75s.34,.75,.75,.75h7.07c.41,0,.75-.34,.75-.75s-.34-.75-.75-.75Z"/><path d="M20.74,24.32h-7.07c-.41,0-.75,.34-.75,.75s.34,.75,.75,.75h7.07c.41,0,.75-.34,.75-.75s-.34-.75-.75-.75Z"/><path d="M20.74,15.12h-7.07c-.41,0-.75,.34-.75,.75s.34,.75,.75,.75h7.07c.41,0,.75-.34,.75-.75s-.34-.75-.75-.75Z"/><path d="M9.64,14.84c-.57,0-1.03,.46-1.03,1.03s.46,1.03,1.03,1.03,1.03-.46,1.03-1.03-.46-1.03-1.03-1.03Z"/><path d="M9.64,19.5c-.57,0-1.03,.46-1.03,1.03s.46,1.03,1.03,1.03,1.03-.46,1.03-1.03-.46-1.03-1.03-1.03Z"/><path d="M9.64,24.04c-.57,0-1.03,.46-1.03,1.03s.46,1.03,1.03,1.03,1.03-.46,1.03-1.03-.46-1.03-1.03-1.03Z"/></svg>