<svg viewBox="0 0 32 32" xmlns="http://www.w3.org/2000/svg"><path d="m28.05 9.43-9.06-8.74c-.35-.34-.82-.53-1.31-.53h-12.43c-1.04 0-1.88.84-1.88 1.86v28.03c0 1.03.84 1.86 1.88 1.86h21.5c1.04 0 1.88-.84 1.88-1.86v-19.28c0-.5-.21-.99-.57-1.34zm-9.03-5.24 5.91 5.69h-5.91zm-13.14 25.22v-26.75h11.55l.09.09v7.89c0 .41.34.75.75.75h7.85v18.02z"/><path d="m20.74 19.78h-7.07c-.41 0-.75.34-.75.75s.34.75.75.75h7.07c.41 0 .75-.34.75-.75s-.34-.75-.75-.75z"/><path d="m20.74 24.32h-7.07c-.41 0-.75.34-.75.75s.34.75.75.75h7.07c.41 0 .75-.34.75-.75s-.34-.75-.75-.75z"/><path d="m20.74 15.12h-7.07c-.41 0-.75.34-.75.75s.34.75.75.75h7.07c.41 0 .75-.34.75-.75s-.34-.75-.75-.75z"/><path d="m9.64 14.84c-.57 0-1.03.46-1.03 1.03s.46 1.03 1.03 1.03 1.03-.46 1.03-1.03-.46-1.03-1.03-1.03z"/><path d="m9.64 19.5c-.57 0-1.03.46-1.03 1.03s.46 1.03 1.03 1.03 1.03-.46 1.03-1.03-.46-1.03-1.03-1.03z"/><path d="m9.64 24.04c-.57 0-1.03.46-1.03 1.03s.46 1.03 1.03 1.03 1.03-.46 1.03-1.03-.46-1.03-1.03-1.03z"/></svg>