<?xml version="1.0" encoding="UTF-8"?><svg id="Lager_1" xmlns="http://www.w3.org/2000/svg" width="512" height="512" viewBox="0 0 512 512"><defs><style>.cls-1{stroke-width:5px;}.cls-1,.cls-2{fill:none;stroke:#000;stroke-linecap:round;stroke-linejoin:round;}.cls-2{stroke-width:12px;}</style></defs><path class="cls-2" d="M199.94,86.67V219.17c0,7.39-5.99,13.39-13.39,13.39H79.52c-7.39,0-13.39-5.99-13.39-13.39V65.54c0-7.39,5.99-13.39,13.39-13.39h86.05l34.36,34.52Z"/><path class="cls-1" d="M159.11,55.81v24c0,7.73,6.27,13.99,13.99,13.99h26.48"/><line class="cls-1" x1="109.59" y1="169.9" x2="109.59" y2="201.88"/><line class="cls-1" x1="132.45" y1="144.46" x2="132.45" y2="201.88"/><line class="cls-1" x1="156.41" y1="156.27" x2="156.41" y2="201.88"/><path class="cls-2" d="M199.94,313.96v132.5c0,7.39-5.99,13.39-13.39,13.39H79.52c-7.39,0-13.39-5.99-13.39-13.39v-153.63c0-7.39,5.99-13.39,13.39-13.39h86.05l34.36,34.52Z"/><path class="cls-1" d="M159.11,283.1v25.31c0,7,5.68,12.68,12.68,12.68h27.79"/><line class="cls-1" x1="258.47" y1="146.24" x2="445.86" y2="146.24"/><line class="cls-1" x1="258.47" y1="173.92" x2="378.97" y2="173.92"/><line class="cls-2" x1="258.47" y1="119.25" x2="321.77" y2="119.25"/><line class="cls-1" x1="258.47" y1="377.92" x2="445.86" y2="377.92"/><line class="cls-1" x1="258.47" y1="405.6" x2="378.97" y2="405.6"/><line class="cls-2" x1="258.47" y1="350.93" x2="321.77" y2="350.93"/><line class="cls-1" x1="109.86" y1="395.92" x2="109.86" y2="427.9"/><line class="cls-1" x1="132.72" y1="370.48" x2="132.72" y2="427.9"/><line class="cls-1" x1="156.68" y1="382.29" x2="156.68" y2="427.9"/></svg>