<?xml version="1.0" encoding="UTF-8"?><svg id="Lager_1" xmlns="http://www.w3.org/2000/svg" width="512" height="512" viewBox="0 0 512 512"><defs><style>.cls-1{fill:none;stroke:#000;stroke-linecap:round;stroke-linejoin:round;stroke-width:5px;}</style></defs><g><line class="cls-1" x1="93.03" y1="347" x2="419.53" y2="347"/><line class="cls-1" x1="93.03" y1="390.84" x2="302.97" y2="390.84"/><line class="cls-1" x1="93.03" y1="434.69" x2="203.32" y2="434.69"/></g><path d="M205.82,80.42v71.6c0,2.27,1.84,4.11,4.11,4.11h91.64c2.27,0,4.11-1.84,4.11-4.11V80.42c0-2.27,1.84-4.11,4.11-4.11h18.73c2.27,0,4.11,1.84,4.11,4.11v182.56c0,2.27-1.84,4.11-4.11,4.11h-18.73c-2.27,0-4.11-1.84-4.11-4.11v-81.22c0-2.27-1.84-4.11-4.11-4.11h-91.64c-2.27,0-4.11,1.84-4.11,4.11v81.22c0,2.27-1.84,4.11-4.11,4.11h-18.43c-2.27,0-4.11-1.84-4.11-4.11V80.42c0-2.27,1.84-4.11,4.11-4.11h18.43c2.27,0,4.11,1.84,4.11,4.11Z"/></svg>