<?xml version="1.0" encoding="UTF-8"?><svg id="Lager_1" xmlns="http://www.w3.org/2000/svg" viewBox="0 0 32 32"><path d="M28.17,25.44H4.32c-.41,0-.75,.34-.75,.75s.34,.75,.75,.75H28.17c.41,0,.75-.34,.75-.75s-.34-.75-.75-.75Z"/><path d="M4.32,22.65H28.17c.41,0,.75-.34,.75-.75s-.34-.75-.75-.75H4.32c-.41,0-.75,.34-.75,.75s.34,.75,.75,.75Z"/><path d="M19.84,29.73H4.32c-.41,0-.75,.34-.75,.75s.34,.75,.75,.75h15.52c.41,0,.75-.34,.75-.75s-.34-.75-.75-.75Z"/><polygon points="12.65 9.12 19.81 9.12 19.81 16.23 22.59 16.23 22.59 .2 19.81 .2 19.81 6.87 12.65 6.87 12.65 .2 9.86 .2 9.86 16.23 12.65 16.23 12.65 9.12"/></svg>