<svg viewBox="0 0 32 32" xmlns="http://www.w3.org/2000/svg"><path d="m22.69 16.56c.58 0 1.18-.15 1.72-.46 1.65-.95 2.22-3.07 1.26-4.72-.46-.8-1.21-1.37-2.1-1.61s-1.82-.12-2.62.35c-.8.46-1.37 1.21-1.61 2.1s-.12 1.82.35 2.62c.64 1.11 1.8 1.73 3 1.73zm-1.89-3.96c.13-.5.46-.93.91-1.19s.98-.33 1.48-.2c.5.14.93.46 1.19.91.54.93.22 2.13-.71 2.67s-2.13.22-2.67-.72c-.26-.45-.33-.98-.2-1.48z"/><path d="m29.57 1.51h-26.96c-1.39 0-2.52 1.13-2.52 2.52v25.09c0 1.39 1.13 2.52 2.52 2.52h26.96c1.39 0 2.52-1.13 2.52-2.52v-25.09c0-1.39-1.13-2.52-2.52-2.52zm.02 2.52v1.4h-26.98v-1.42s26.99.02 26.99.02zm-27 25.09.02-22.19h26.98v15.2l-4.7-2.52c-.22-.12-.49-.12-.71 0l-5 2.74-3.82-4.33c-.15-.17-.37-.26-.6-.25-.23 0-.44.12-.57.31l-8.09 11.05h-3.51zm26.99.02h-21.62s6.9-9.42 6.9-9.42l3.6 4.08c.23.26.62.33.92.16l5.17-2.83 5.05 2.7v5.29s0 .02-.02.02z"/><path d="m5.62 15.26h7.28c.41 0 .75-.34.75-.75s-.34-.75-.75-.75h-7.28c-.41 0-.75.34-.75.75s.34.75.75.75z"/><path d="m5.62 11.59h7.28c.41 0 .75-.34.75-.75s-.34-.75-.75-.75h-7.28c-.41 0-.75.34-.75.75s.34.75.75.75z"/><path d="m10.35 18.93c.41 0 .75-.34.75-.75s-.34-.75-.75-.75h-4.73c-.41 0-.75.34-.75.75s.34.75.75.75h4.74z"/></svg>