<?xml version="1.0" encoding="UTF-8"?><svg id="Lager_1" xmlns="http://www.w3.org/2000/svg" viewBox="0 0 32 32"><path d="M22.69,16.56c.58,0,1.18-.15,1.72-.46,1.65-.95,2.22-3.07,1.26-4.72-.46-.8-1.21-1.37-2.1-1.61-.89-.24-1.82-.12-2.62,.35-.8,.46-1.37,1.21-1.61,2.1-.24,.89-.12,1.82,.35,2.62,.64,1.11,1.8,1.73,3,1.73Zm-1.89-3.96c.13-.5,.46-.93,.91-1.19,.45-.26,.98-.33,1.48-.2,.5,.14,.93,.46,1.19,.91,.54,.93,.22,2.13-.71,2.67-.93,.54-2.13,.22-2.67-.72-.26-.45-.33-.98-.2-1.48Z"/><path d="M29.57,1.51H2.61C1.22,1.51,.09,2.64,.09,4.03V29.12c0,1.39,1.13,2.52,2.52,2.52H29.57c1.39,0,2.52-1.13,2.52-2.52V4.03c0-1.39-1.13-2.52-2.52-2.52Zm.02,2.52v1.4H2.61v-1.42s26.99,.02,26.99,.02ZM2.59,29.12l.02-22.19H29.59v15.2l-4.7-2.52c-.22-.12-.49-.12-.71,0l-5,2.74-3.82-4.33c-.15-.17-.37-.26-.6-.25-.23,0-.44,.12-.57,.31L6.1,29.13H2.59Zm26.99,.02H7.96s6.9-9.42,6.9-9.42l3.6,4.08c.23,.26,.62,.33,.92,.16l5.17-2.83,5.05,2.7v5.29s0,.02-.02,.02Z"/><path d="M5.62,15.26h7.28c.41,0,.75-.34,.75-.75s-.34-.75-.75-.75H5.62c-.41,0-.75,.34-.75,.75s.34,.75,.75,.75Z"/><path d="M5.62,11.59h7.28c.41,0,.75-.34,.75-.75s-.34-.75-.75-.75H5.62c-.41,0-.75,.34-.75,.75s.34,.75,.75,.75Z"/><path d="M10.35,18.93c.41,0,.75-.34,.75-.75s-.34-.75-.75-.75H5.62c-.41,0-.75,.34-.75,.75s.34,.75,.75,.75h4.74Z"/></svg>