<?xml version="1.0" encoding="UTF-8"?><svg id="Lager_1" xmlns="http://www.w3.org/2000/svg" width="512" height="512" viewBox="0 0 512 512"><defs><style>.cls-1{stroke-width:5px;}.cls-1,.cls-2{fill:none;stroke:#000;stroke-linecap:round;stroke-linejoin:round;}.cls-2{stroke-width:12px;}</style></defs><line class="cls-1" x1="99.35" y1="242.09" x2="222.01" y2="242.09"/><line class="cls-1" x1="99.35" y1="269.61" x2="177.81" y2="269.61"/><line class="cls-1" x1="99.35" y1="215.26" x2="162.27" y2="215.26"/><path class="cls-2" d="M430.64,411.09H81.36c-14.19,0-25.69-11.5-25.69-25.69V126.6c0-14.19,11.5-25.69,25.69-25.69H430.64c14.19,0,25.69,11.5,25.69,25.69V385.4c0,14.19-11.5,25.69-25.69,25.69Z"/><line class="cls-2" x1="60.01" y1="161.93" x2="455.72" y2="161.93"/><line class="cls-1" x1="91.41" y1="132.46" x2="139.85" y2="132.46"/><circle class="cls-1" cx="385.94" cy="133.01" r="11.46"/><circle class="cls-1" cx="422.26" cy="133.01" r="11.46"/><polyline class="cls-1" points="160.23 406.54 271.68 254.36 331.23 335.05 402.23 308.83 454.91 335.05"/><ellipse class="cls-1" cx="361.58" cy="237.22" rx="29.31" ry="29.04"/></svg>