<?xml version="1.0" encoding="UTF-8"?><svg id="Lager_1" xmlns="http://www.w3.org/2000/svg" viewBox="0 0 32 32"><path d="M27.65,4.48c-1.77,0-3.21,1.44-3.21,3.21,0,.21,.02,.42,.06,.62l-6.46,2.84c-1.1-1.85-3.12-3.1-5.42-3.1-1.17,0-2.27,.33-3.21,.89l-2.78-3.63c.6-.84,.77-1.96,.33-2.97C6.29,.81,4.5,.1,2.97,.77S.73,3.22,1.4,4.76s2.45,2.24,3.99,1.57c.03-.01,.06-.04,.09-.05l2.74,3.57c-1.17,1.15-1.91,2.74-1.91,4.51,0,1.99,.93,3.77,2.38,4.93l-3.85,6.22c-.22-.05-.44-.08-.67-.08-1.67,0-3.03,1.35-3.03,3.03s1.35,3.03,3.03,3.03,3.03-1.35,3.03-3.03c0-.9-.4-1.7-1.02-2.25l3.79-6.12c.81,.38,1.71,.59,2.66,.59,1.08,0,2.1-.27,2.99-.76l2.81,3.99,.04-.03c-.97,1.13-.94,2.82,.13,3.89s2.93,1.12,4.05,0,1.12-2.93,0-4.05c-.82-.82-2.01-1.03-3.03-.65l.03-.02-2.81-4c1.28-1.16,2.1-2.83,2.1-4.69,0-.64-.1-1.26-.27-1.84l6.49-2.86c.59,.74,1.49,1.23,2.5,1.23,1.77,0,3.21-1.44,3.21-3.21s-1.44-3.21-3.21-3.21ZM8.81,14.36c0-2.1,1.71-3.81,3.81-3.81s3.81,1.71,3.81,3.81-1.71,3.81-3.81,3.81-3.81-1.71-3.81-3.81Z"/></svg>