<?xml version="1.0" encoding="UTF-8"?><svg id="Lager_1" xmlns="http://www.w3.org/2000/svg" viewBox="0 0 32 32"><path d="M29.79,6.5H1.82C.79,6.5-.06,7.35-.06,8.39v15.68c0,1.04,.85,1.89,1.89,1.89H29.79c1.04,0,1.89-.85,1.89-1.89V8.39c0-1.04-.85-1.89-1.89-1.89Zm-.61,16.95H2.44V9H29.17v14.45Z"/><path d="M18.44,17.06h7.59c.41,0,.75-.34,.75-.75s-.34-.75-.75-.75h-7.59c-.41,0-.75,.34-.75,.75s.34,.75,.75,.75Z"/><path d="M18.44,13.71h7.59c.41,0,.75-.34,.75-.75s-.34-.75-.75-.75h-7.59c-.41,0-.75,.34-.75,.75s.34,.75,.75,.75Z"/><path d="M18.44,20.42h4.18c.41,0,.75-.34,.75-.75s-.34-.75-.75-.75h-4.18c-.41,0-.75,.34-.75,.75s.34,.75,.75,.75Z"/><path d="M5.23,21.46H14.22c.41,0,.75-.34,.75-.75V11.75c0-.41-.34-.75-.75-.75H5.23c-.41,0-.75,.34-.75,.75v8.96c0,.41,.34,.75,.75,.75Zm.75-8.96h7.49v7.46H5.98v-7.46Z"/></svg>