<svg viewBox="0 0 32 32" xmlns="http://www.w3.org/2000/svg"><path d="m18.16 14.98c.55.39 1.19.6 1.85.6.17 0 .34-.01.52-.04.84-.13 1.57-.59 2.07-1.28s.7-1.53.56-2.37-.59-1.57-1.28-2.07-1.53-.7-2.37-.56c-.84.13-1.57.59-2.07 1.28s-.7 1.53-.56 2.37.59 1.57 1.28 2.07zm.5-3.56c.26-.36.65-.6 1.09-.67.09-.01.18-.02.27-.02.35 0 .69.11.98.32.36.26.6.65.68 1.09.07.44-.03.89-.3 1.25s-.65.6-1.09.67-.89-.03-1.25-.29-.6-.65-.68-1.09c-.07-.44.03-.89.3-1.25z"/><path d="m28.66 3.89h-25.32c-1.39 0-2.52 1.13-2.52 2.52v19.18c0 1.39 1.13 2.52 2.52 2.52h25.32c1.39 0 2.52-1.13 2.52-2.52v-19.18c0-1.39-1.13-2.52-2.52-2.52zm.02 2.52v13.62l-3.57-1.45c-.16-.06-.33-.07-.5-.02l-6.23 1.87-5.28-5.83c-.14-.16-.34-.25-.56-.25-.21 0-.41.09-.56.25l-8.66 9.65.02-17.86zm-.02 19.2-24.53-.02 8.42-9.37 5.04 5.57c.19.21.5.3.77.21l6.43-1.93 3.89 1.58v3.94s0 .02-.02.02z"/></svg>