<?xml version="1.0" encoding="UTF-8"?><svg id="Lager_1" xmlns="http://www.w3.org/2000/svg" width="512" height="512" viewBox="0 0 512 512"><defs><style>.cls-1{fill:none;stroke:#000;stroke-linecap:round;stroke-linejoin:round;stroke-width:12px;}</style></defs><path class="cls-1" d="M226.06,261.39c3.14-7.72,7.84-14.96,14.11-21.22h0c25.12-25.12,65.86-25.12,90.99,0l84.23,84.23c25.12,25.12,25.12,65.86,0,90.99h0c-25.12,25.12-65.86,25.12-90.99,0l-84.23-84.23c-4.79-4.79-8.66-10.14-11.62-15.84"/><path class="cls-1" d="M285.94,250.61c-3.14,7.72-7.84,14.96-14.11,21.22h0c-25.12,25.12-65.86,25.12-90.99,0l-84.23-84.23c-25.12-25.12-25.12-65.86,0-90.99h0c25.12-25.12,65.86-25.12,90.99,0l84.23,84.23c4.79,4.79,8.66,10.14,11.62,15.84"/></svg>