<svg viewBox="0 0 32 32" xmlns="http://www.w3.org/2000/svg"><path d="m18.4 16.99c-.49-.49-1.28-.49-1.77 0-1.25 1.25-3.44 1.25-4.69 0l-5.98-5.98c-.63-.63-.97-1.46-.97-2.35s.34-1.72.97-2.35c1.29-1.29 3.4-1.29 4.69 0l3.35 3.35c.49.49 1.28.49 1.77 0s.49-1.28 0-1.77l-3.35-3.35c-2.27-2.27-5.96-2.27-8.23 0s-2.27 5.96 0 8.23l5.98 5.98c1.13 1.13 2.62 1.7 4.11 1.7s2.98-.57 4.11-1.7c.49-.49.49-1.28 0-1.77z"/><path d="m27.81 19.22-5.98-5.98c-2.27-2.27-5.96-2.27-8.23 0-.49.49-.49 1.28 0 1.77s1.28.49 1.77 0c1.25-1.25 3.44-1.25 4.69 0l5.98 5.98c.63.63.97 1.46.97 2.35s-.34 1.72-.97 2.35c-1.29 1.29-3.4 1.29-4.69 0l-3.35-3.35c-.49-.49-1.28-.49-1.77 0s-.49 1.28 0 1.77l3.35 3.35c1.13 1.13 2.62 1.7 4.11 1.7s2.98-.57 4.11-1.7c2.27-2.27 2.27-5.96 0-8.23z"/></svg>