<?xml version="1.0" encoding="UTF-8"?><svg id="Lager_1" xmlns="http://www.w3.org/2000/svg" viewBox="0 0 32 32"><path d="M7.63,23.52l-.75-1.35c-.21-.39-.09-.89,.3-1.1,2.22-1.18,2.92-2.72,3.03-5.26,.02-.47-.34-.86-.8-.86h-2.02c-.44,0-.8-.36-.8-.8v-5.27c0-.44,.36-.8,.8-.8h5.57c.44,0,.8,.36,.8,.8v6.08c0,4.11-1.31,7.07-5.07,8.92-.38,.19-.86,.03-1.06-.34Zm11.65,0l-.75-1.35c-.21-.39-.09-.89,.3-1.1,2.22-1.18,2.92-2.72,3.03-5.26,.02-.47-.34-.86-.8-.86h-2.02c-.44,0-.8-.36-.8-.8v-5.27c0-.44,.36-.8,.8-.8h5.57c.44,0,.8,.36,.8,.8v6.08c0,4.11-1.31,7.07-5.07,8.92-.38,.19-.86,.03-1.06-.34Z"/></svg>