<?xml version="1.0" encoding="UTF-8"?><svg id="Lager_1" xmlns="http://www.w3.org/2000/svg" viewBox="0 0 32 32"><path d="M29.38,22.18H2.62c-.41,0-.75,.34-.75,.75s.34,.75,.75,.75H29.38c.41,0,.75-.34,.75-.75s-.34-.75-.75-.75Z"/><path d="M29.38,17.56H2.62c-.41,0-.75,.34-.75,.75s.34,.75,.75,.75H29.38c.41,0,.75-.34,.75-.75s-.34-.75-.75-.75Z"/><path d="M20.04,26.8H2.62c-.41,0-.75,.34-.75,.75s.34,.75,.75,.75H20.04c.41,0,.75-.34,.75-.75s-.34-.75-.75-.75Z"/><path d="M29.38,8.32H2.62c-.41,0-.75,.34-.75,.75s.34,.75,.75,.75H29.38c.41,0,.75-.34,.75-.75s-.34-.75-.75-.75Z"/><path d="M29.38,12.94H2.62c-.41,0-.75,.34-.75,.75s.34,.75,.75,.75H29.38c.41,0,.75-.34,.75-.75s-.34-.75-.75-.75Z"/><path d="M2.62,5.2H29.38c.41,0,.75-.34,.75-.75s-.34-.75-.75-.75H2.62c-.41,0-.75,.34-.75,.75s.34,.75,.75,.75Z"/></svg>