<?xml version="1.0" encoding="UTF-8"?><svg id="Lager_1" xmlns="http://www.w3.org/2000/svg" viewBox="0 0 32 32"><path d="M16,7.22c.48,0,.88-.39,.88-.88s-.39-.88-.88-.88-.88,.39-.88,.88,.39,.88,.88,.88Z"/><path d="M20.98,7.22c.48,0,.88-.39,.88-.88s-.39-.88-.88-.88-.88,.39-.88,.88,.39,.88,.88,.88Z"/><path d="M25.95,7.22c.48,0,.88-.39,.88-.88s-.39-.88-.88-.88-.88,.39-.88,.88,.39,.88,.88,.88Z"/><path d="M29.48,.94H2.52C1.13,.94,0,2.07,0,3.45V28.55c0,1.39,1.13,2.52,2.52,2.52H29.48c1.39,0,2.52-1.13,2.52-2.52V3.45c0-1.39-1.13-2.52-2.52-2.52Zm.02,2.52v6.03H2.51V3.44s26.99,.02,26.99,.02Zm-.02,25.11l-26.99-.02V11.48H29.5V28.55s0,.02-.02,.02Z"/><path d="M5.82,7.34h4.81c.55,0,1-.45,1-1s-.45-1-1-1H5.82c-.55,0-1,.45-1,1s.45,1,1,1Z"/></svg>