<svg viewBox="0 0 32 32" xmlns="http://www.w3.org/2000/svg"><path d="m27.45 11.84c-.97-.52-2.98-.46-4.52-.32.34-.94.75-2.3 1.16-4.16.34-1.55-.19-3.03-1.47-4.07-1.44-1.17-3.54-1.54-5-.88-1.04.47-1.67 1.42-1.72 2.61-.1 2.4-3.12 5.46-4.57 6.71h-7.79c-.55 0-1 .45-1 1v13.62c0 .55.45 1 1 1h7.8c.93.69 3.9 2.58 8.73 2.58 5.9 0 8.16-2.84 8.26-2.97.05-.07.1-.14.13-.23.04-.09.91-2.21.98-5.84.17-7.9-1.46-8.76-1.99-9.05zm-16.76 13.5h-6.15v-11.62h6.14v11.62zm16.76-4.5c-.06 2.72-.61 4.49-.78 4.98-.41.43-2.28 2.1-6.59 2.1-3.99 0-6.52-1.47-7.38-2.07v-12.66c1.23-1.06 5.07-4.66 5.21-8.09.02-.44.19-.71.54-.87.77-.35 2.08-.07 2.92.61.48.39 1.01 1.07.78 2.09-.83 3.77-1.66 5.29-1.67 5.3-.19.33-.17.75.04 1.06.22.32.6.48.98.42 1.96-.3 4.44-.42 5.01-.11.28.19 1.05 1.92.94 7.24z"/></svg>