<?xml version="1.0" encoding="UTF-8"?><svg id="Lager_1" xmlns="http://www.w3.org/2000/svg" viewBox="0 0 32 32"><path d="M29.17,8.45c-.42-.55-1.2-.65-1.75-.23l-1.5,1.15c-2.23,1.71-6,1.71-8.23,0l-1.71-1.31c-3.16-2.42-8.11-2.42-11.27,0l-1.44,1.1c-.55,.42-.65,1.2-.23,1.75,.42,.55,1.2,.65,1.75,.23l1.44-1.1c2.23-1.71,6-1.71,8.23,0l1.71,1.31c1.58,1.21,3.61,1.82,5.64,1.82s4.06-.61,5.64-1.82l1.5-1.15c.55-.42,.65-1.2,.23-1.75Z"/><path d="M13.91,19.44H5.08c-.41,0-.75,.34-.75,.75s.34,.75,.75,.75H13.91c.41,0,.75-.34,.75-.75s-.34-.75-.75-.75Z"/><path d="M13.91,15.72H5.08c-.41,0-.75,.34-.75,.75s.34,.75,.75,.75H13.91c.41,0,.75-.34,.75-.75s-.34-.75-.75-.75Z"/><path d="M8.66,23.17h-3.58c-.41,0-.75,.34-.75,.75s.34,.75,.75,.75h3.58c.41,0,.75-.34,.75-.75s-.34-.75-.75-.75Z"/><path d="M27.13,19.44h-8.83c-.41,0-.75,.34-.75,.75s.34,.75,.75,.75h8.83c.41,0,.75-.34,.75-.75s-.34-.75-.75-.75Z"/><path d="M27.13,15.72h-8.83c-.41,0-.75,.34-.75,.75s.34,.75,.75,.75h8.83c.41,0,.75-.34,.75-.75s-.34-.75-.75-.75Z"/><path d="M21.89,23.17h-3.58c-.41,0-.75,.34-.75,.75s.34,.75,.75,.75h3.58c.41,0,.75-.34,.75-.75s-.34-.75-.75-.75Z"/></svg>